<?xml version="1.0" encoding="UTF-8" standalone="no"?>
<svg width="142px" height="9px" viewBox="0 0 142 9" version="1.1" xmlns="http://www.w3.org/2000/svg" xmlns:xlink="http://www.w3.org/1999/xlink" xmlns:sketch="http://www.bohemiancoding.com/sketch/ns">
    <!-- Generator: Sketch 3.0.4 (8053) - http://www.bohemiancoding.com/sketch -->
    <title>Line + Line + Line</title>
    <desc>Created with Sketch.</desc>
    <defs></defs>
    <g id="Page-1" stroke="none" stroke-width="1" fill="none" fill-rule="evenodd" sketch:type="MSPage">
        <g id="Artboard-1" sketch:type="MSArtboardGroup" transform="translate(-958.000000, -104.000000)" fill="#50E3C2">
            <g id="Add-Btn" sketch:type="MSLayerGroup" transform="translate(959.000000, 72.000000)">
                <g id="Line-+-Line-+-Line" transform="translate(0.000000, 32.000000)" sketch:type="MSShapeGroup">
                    <path d="M139.631406,9 L140.131406,9 L140.131406,8 L139.631406,8 L0.476190476,8 L-0.0238095238,8 L-0.0238095238,9 L0.476190476,9 L139.631406,9 Z" id="Line" fill-opacity="0.225430254"></path>
                    <path d="M139.631406,5 L140.131406,5 L140.131406,4 L139.631406,4 L0.476190476,4 L-0.0238095238,4 L-0.0238095238,5 L0.476190476,5 L139.631406,5 Z" id="Line" fill-opacity="0.4940274"></path>
                    <path d="M139.631406,1 L140.131406,1 L140.131406,0 L139.631406,0 L0.476190476,0 L-0.0238095238,0 L-0.0238095238,1 L0.476190476,1 L139.631406,1 Z" id="Line"></path>
                </g>
            </g>
        </g>
    </g>
</svg>