<?xml version="1.0" encoding="UTF-8" standalone="no"?>
<svg width="70px" height="73px" viewBox="0 0 70 73" version="1.1" xmlns="http://www.w3.org/2000/svg" xmlns:xlink="http://www.w3.org/1999/xlink" xmlns:sketch="http://www.bohemiancoding.com/sketch/ns">
    <!-- Generator: Sketch 3.0.4 (8053) - http://www.bohemiancoding.com/sketch -->
    <title>Group + Group</title>
    <desc>Created with Sketch.</desc>
    <defs></defs>
    <g id="Page-1" stroke="none" stroke-width="1" fill="none" fill-rule="evenodd" sketch:type="MSPage">
        <g id="Artboard-1" sketch:type="MSArtboardGroup" transform="translate(-508.000000, -874.000000)" stroke="#FFFFFF">
            <g id="Group-+-Group" sketch:type="MSLayerGroup" transform="translate(509.000000, 875.000000)">
                <g id="Group" transform="translate(32.000000, 30.968018) rotate(-234.000000) translate(-32.000000, -30.968018) translate(11.000000, 6.468018)" sketch:type="MSShapeGroup">
                    <path d="M16.0173536,30.8405823 L16.0173536,34.5209603 L9.09685575,37.2181688" id="Stroke-2540" transform="translate(12.557105, 34.029376) rotate(-178.000000) translate(-12.557105, -34.029376) "></path>
                    <path d="M24.0260304,31.4340883 L24.0260304,34.5207601 L31.8164707,37.2179686" id="Stroke-2541" transform="translate(27.921251, 34.326028) rotate(-178.000000) translate(-27.921251, -34.326028) "></path>
                    <path d="M28.0303688,24.1480211 C28.0303688,28.7094472 24.6376931,32.4078467 20.4571638,32.4078467 C16.2736312,32.4078467 12.8839588,28.7094472 12.8839588,24.1480211 C12.8839588,19.5875962 16.2736312,15.8891967 20.4571638,15.8891967 C24.6376931,15.8891967 28.0303688,19.5875962 28.0303688,24.1480211 L28.0303688,24.1480211 Z" id="Stroke-2542" transform="translate(20.457164, 24.148522) rotate(-178.000000) translate(-20.457164, -24.148522) "></path>
                    <path d="M27.90233,22.6321179 C26.6399624,23.8946197 23.0801055,23.9036304 21.7186305,21.369616 C19.1948962,23.8946197 15.0914504,23.8946197 13.0502389,22.4529047" id="Stroke-2543" stroke-linejoin="round" transform="translate(20.476284, 22.416867) rotate(-178.000000) translate(-20.476284, -22.416867) "></path>
                    <path d="M26.0281996,0.480266905 L42.0455531,0.480266905 L42.0455531,48.5374338 L-1.70530257e-13,48.5374338 L-1.70530257e-13,0.480266905 L14.0151844,0.480266905" id="Stroke-2544" stroke-linejoin="round"></path>
                </g>
                <g id="Group" transform="translate(28.000000, 34.000000)" fill="#15122F" stroke-linecap="round" sketch:type="MSShapeGroup" stroke-linejoin="round">
                    <path d="M8.00867679,15.3131159 L8.00867679,6.47560312 C8.00867679,4.38311398 9.92074837,2.47083921 12.0130152,2.47083921 C14.1042809,2.47083921 16.0173536,4.86268445 16.0173536,6.9541724 L16.0173536,9.47917605" id="Stroke-155"></path>
                    <path d="M40.0433839,9.47907593 L40.0433839,22.4945586 C40.0433839,29.4678538 34.0008373,36.5112323 27.0292842,36.5112323 L18.0195228,36.5112323 C3.71702711,36.5112323 0,23.539802 0,18.4897947 L0,15.4862218 C0,13.0333039 2.0021692,10.4802669 5.00542299,10.4802669 L8.00867679,10.4802669" id="Stroke-157"></path>
                    <path d="M24.0260304,9.47907593 L24.0260304,6.95507348 C24.0260304,4.86358553 26.3735738,2.68899872 28.4658406,2.68899872 C30.5561052,2.68899872 32.0347072,4.38301386 32.0347072,6.475503 L32.0347072,9.47907593" id="Stroke-159"></path>
                    <path d="M24.0260304,6.95457288 L24.0260304,4.47262045 L24.0260304,4.42956924 C24.0260304,2.33808129 22.1129577,0.467856543 20.021692,0.467856543 C17.9294252,0.467856543 16.0173536,2.33808129 16.0173536,4.42956924 L16.0173536,6.95457288" id="Stroke-161"></path>
                    <path d="M32.0347072,13.4838398 L32.0347072,9.47907593 C32.0347072,7.38658679 33.9467787,5.47431202 36.0390456,5.47431202 C38.1303113,5.47431202 40.0433839,7.38658679 40.0433839,9.47907593 L40.0433839,12.3955452" id="Stroke-163"></path>
                </g>
            </g>
        </g>
    </g>
</svg>