<?xml version="1.0" encoding="UTF-8" standalone="no"?>
<svg width="96px" height="42px" viewBox="0 0 96 42" version="1.1" xmlns="http://www.w3.org/2000/svg" xmlns:xlink="http://www.w3.org/1999/xlink" xmlns:sketch="http://www.bohemiancoding.com/sketch/ns">
    <!-- Generator: Sketch 3.0.4 (8053) - http://www.bohemiancoding.com/sketch -->
    <title>Gif.gy</title>
    <desc>Created with Sketch.</desc>
    <defs>
        <linearGradient x1="61.6442839%" y1="10.5563865%" x2="51.7183219%" y2="93.5524664%" id="linearGradient-1">
            <stop stop-color="#FFFD1F" offset="0%"></stop>
            <stop stop-color="#FC5046" offset="50.394611%"></stop>
            <stop stop-color="#5B17FF" offset="100%"></stop>
        </linearGradient>
    </defs>
    <g id="Page-1" stroke="none" stroke-width="1" fill="none" fill-rule="evenodd" sketch:type="MSPage">
        <g id="Artboard-1" sketch:type="MSArtboardGroup" transform="translate(-104.000000, -67.000000)" fill="url(#linearGradient-1)">
            <g id="Logo" sketch:type="MSLayerGroup" transform="translate(105.000000, 40.000000)">
                <path d="M63.2964277,47.2091792 L63.2964277,46.9020642 L63.2964277,39.5030719 C62.6355357,39.1310201 61.7967238,38.8279825 60.779967,38.5939499 C59.7632101,38.3599174 58.7401138,38.2429029 57.7106475,38.2429029 C55.1941742,38.2429029 53.1003219,38.9779941 51.4290278,40.4481986 C49.7577337,41.9184032 48.9220991,43.7876352 48.9220991,46.0559507 C48.9220991,47.7001795 49.3001999,49.1043538 50.0564129,50.2685157 C50.8126258,51.4326777 51.8039489,52.2997853 53.0304119,52.8698646 C54.2568749,53.4399439 55.6707812,53.7609838 57.2721733,53.8329938 L53.649995,58.3335974 C52.9382652,59.2097193 52.4489583,59.9868157 52.1820596,60.66491 C51.9151609,61.3430044 51.7817136,62.0300897 51.7817136,62.7261865 C51.7817136,64.1903902 52.2996163,65.3725369 53.3354374,66.2726621 C54.3712585,67.1727874 55.7406824,67.6228432 57.4437501,67.6228432 C59.1849463,67.6228432 60.5956753,67.1397833 61.6759795,66.1736489 C62.7562837,65.2075145 63.2964277,63.9083532 63.2964277,62.2761261 L63.2964277,53.1412026 L69.5935504,45.3898614 L69.5935504,49.7464457 C69.5935504,51.0666294 69.9049275,52.0837556 70.5276911,52.7978549 C71.1504547,53.5119543 72.0845861,53.8689986 73.3301132,53.8689986 C74.4231269,53.8689986 75.3000665,53.670974 75.9609585,53.2749189 C76.6218505,52.8788638 77.2827325,52.0447603 77.9436245,50.7725833 L80.4791493,45.9479362 L80.4791493,51.0426195 L74.5502154,58.3335974 C73.8384856,59.2097193 73.3460013,59.9898161 73.0727479,60.6739113 C72.7994945,61.3580064 72.6628699,62.0420913 72.6628699,62.7261865 C72.6628699,64.1903902 73.1807726,65.3725369 74.2165937,66.2726621 C75.2524148,67.1727874 76.6218387,67.6228432 78.3249064,67.6228432 C80.0661026,67.6228432 81.4800089,67.1397833 82.5666678,66.1736489 C83.6533267,65.2075145 84.1966481,63.9083532 84.1966481,62.2761261 L84.1966481,52.5908272 L93.4046065,40.4571998 L90.3924793,38.422927 L84.1966481,46.7220401 L84.1966481,38.5669463 L80.4791493,38.5669463 L74.5883436,49.5664215 C74.4104111,49.8904666 74.2674318,50.1124942 74.1594014,50.2325109 C74.051371,50.3525276 73.9083917,50.412535 73.7304593,50.412535 C73.4635606,50.412535 73.3301132,50.2625164 73.3301132,49.9624747 L73.3301132,38.5669463 L69.8604477,38.5669463 L63.2964277,47.2091792 L63.2964277,47.2091792 Z M34.275427,47.352491 L31.3092964,51.7087089 C30.7627895,52.5248224 30.1654538,53.0888924 29.5172713,53.4009358 C28.8690888,53.7129792 28.100178,53.8689986 27.2105157,53.8689986 C26.0285358,53.8689986 25.1484188,53.541958 24.5701384,52.887867 C23.9918579,52.233776 23.702722,51.4086736 23.702722,50.412535 L23.702722,45.3538566 L19.2429016,51.7087089 L19.1784076,51.6942626 C17.1505442,53.1440937 14.6498335,53.8689986 11.6762029,53.8689986 C9.45204722,53.8689986 7.43445055,53.3769375 5.62335236,52.3928006 C3.81225417,51.4086637 2.38881589,50.0434943 1.35299482,48.2972513 C0.317173746,46.5510084 -0.200729021,44.597766 -0.200729021,42.4374654 C-0.200729021,40.8772484 0.107470785,39.392064 0.723879643,37.9818679 C1.3402885,36.5716717 2.17592303,35.3595212 3.23080829,34.3453801 C4.28569355,33.3312391 5.54708863,32.5241389 7.01503138,31.9240554 C8.48297412,31.3239719 10.0366824,31.0239347 11.6762029,31.0239347 C14.0274532,31.0239347 16.1689652,31.6120077 18.1008033,32.7881713 C20.0326414,33.9643349 21.4942075,35.5725345 22.4855454,37.6128184 L19.0540081,39.3410501 C17.312812,36.2686227 14.8535681,34.7324321 11.6762029,34.7324321 C10.1510676,34.7324321 8.78799833,35.0834756 7.58695426,35.7855733 C6.3859102,36.487671 5.4644881,37.4207868 4.82266032,38.5849487 C4.18083254,39.7491107 3.85992346,41.0332701 3.85992346,42.4374654 C3.85992346,44.6097676 4.59706114,46.4369944 6.07135862,47.9192006 C7.54565609,49.4014068 9.41391884,50.1424988 11.6762029,50.1424988 C13.112372,50.1424988 14.3261073,49.9384735 15.3174453,49.5304167 L15.3174453,46.2719797 L10.8183186,46.2719797 L10.8183186,42.6714968 L19.2827773,42.6714968 L19.2827773,45.2988602 L19.2827773,45.2988602 L23.9314911,38.5669463 L27.4011566,38.5669463 L27.4011566,49.6384312 C27.4011566,49.9504746 27.5091854,50.106494 27.7252463,50.106494 C27.8904693,50.106494 28.0429805,49.9864791 28.1827846,49.7464457 L31.1841746,45.3544567 L31.2098391,45.3697862 L36.2909964,38.3101119 L36.2909964,34.3135759 C36.2909964,32.1772787 36.9741197,30.5390753 38.3403868,29.3989167 C39.7066538,28.2587581 41.6352856,27.6886874 44.12634,27.6886874 L46.6237366,27.6886874 L46.6237366,31.0011316 L43.8213144,31.0011316 C42.5376589,31.0011316 41.578109,31.3281722 40.9426359,31.9822632 C40.3071629,32.6363542 39.9894311,33.4674574 39.9894311,34.4755976 L39.9894311,37.3379815 L46.2043265,37.3379815 L46.2043265,40.6684282 L39.9894311,40.6684282 L39.9894311,61.0471613 C39.9894311,62.6793884 39.4492871,63.9785496 38.3689829,64.944684 C37.2886787,65.9108184 35.8779497,66.3938784 34.1367536,66.3938784 C32.4336858,66.3938784 31.0642619,65.9438225 30.0284409,65.0436973 C28.9926198,64.1435721 28.474717,62.9614254 28.474717,61.4972217 C28.474717,60.8011248 28.6081644,60.1140396 28.875063,59.4359452 C29.1419617,58.7578509 29.6312686,57.9807544 30.3429984,57.1046326 L36.2909964,49.7776499 L36.2909964,44.2689111 L34.2808991,47.3559501 L34.275427,47.352491 Z M23.6264656,34.3003741 C23.6264656,33.6522839 23.8679417,33.0972151 24.3509013,32.6351508 C24.8338608,32.1730865 25.3994233,31.9420578 26.0476058,31.9420578 C26.7466262,31.9420578 27.3439619,32.1730865 27.8396309,32.6351508 C28.3352998,33.0972151 28.5831306,33.6522839 28.5831306,34.3003741 C28.5831306,34.9364626 28.3352998,35.4825304 27.8396309,35.9385938 C27.3439619,36.3946573 26.7466262,36.6226856 26.0476058,36.6226856 C25.3994233,36.6226856 24.8338608,36.3916569 24.3509013,35.9295926 C23.8679417,35.4675283 23.6264656,34.9244609 23.6264656,34.3003741 Z M32.230344,61.2811927 C32.230344,61.8092662 32.4273377,62.2473205 32.8213309,62.595369 C33.2153242,62.9434174 33.6919219,63.117439 34.2511382,63.117439 C34.8993207,63.117439 35.4013368,62.916414 35.7572018,62.5143581 C36.1130667,62.1123022 36.2909964,61.6472444 36.2909964,61.119171 L36.2909964,55.4124056 L32.9738437,59.4989537 C32.4781747,60.0990372 32.230344,60.6931109 32.230344,61.2811927 Z M42.3847688,51.5466871 C42.3847688,50.898597 42.6262449,50.3435281 43.1092045,49.8814638 C43.592164,49.4193995 44.1577265,49.1883708 44.805909,49.1883708 C45.5049294,49.1883708 46.1022651,49.4193995 46.5979341,49.8814638 C47.093603,50.3435281 47.3414338,50.898597 47.3414338,51.5466871 C47.3414338,52.1827756 47.093603,52.7288434 46.5979341,53.1849069 C46.1022651,53.6409703 45.5049294,53.8689986 44.805909,53.8689986 C44.1577265,53.8689986 43.592164,53.6379699 43.1092045,53.1759056 C42.6262449,52.7138414 42.3847688,52.170774 42.3847688,51.5466871 Z M52.6777261,46.0559507 C52.6777261,47.3881361 53.1289052,48.4772712 54.0312769,49.323389 C54.9336487,50.1695067 56.1982211,50.5925592 57.8250321,50.5925592 C58.4986335,50.5925592 59.0832599,50.5445532 59.5789289,50.4485399 L59.5789289,41.7893785 C58.9434559,41.6333568 58.2952831,41.5553471 57.6343911,41.5553471 C56.198222,41.5553471 55.0130825,41.957397 54.0789372,42.7615089 C53.1447918,43.5656208 52.6777261,44.6637571 52.6777261,46.0559507 Z M55.5182764,62.5101575 C55.5182764,63.0262293 55.7184474,63.4612833 56.1187955,63.8153326 C56.5191435,64.1693818 56.9989184,64.3464038 57.5581347,64.3464038 C58.1936078,64.3464038 58.6892693,64.1453789 59.0451342,63.7433229 C59.4009991,63.341267 59.5789289,62.8762093 59.5789289,62.3481358 L59.5789289,56.5693608 L56.2617762,60.7279185 C55.7661072,61.364007 55.5182764,61.9580807 55.5182764,62.5101575 Z M76.4184968,62.5101575 C76.4184968,63.0262293 76.6186678,63.4612833 77.0190158,63.8153326 C77.4193639,64.1693818 77.8991388,64.3464038 78.4583551,64.3464038 C79.0938282,64.3464038 79.5894897,64.1453789 79.9453546,63.7433229 C80.3012195,63.341267 80.4791493,62.8762093 80.4791493,62.3481358 L80.4791493,56.5693608 L77.1619966,60.7279185 C76.6663276,61.364007 76.4184968,61.9580807 76.4184968,62.5101575 Z" id="Gif.gy" sketch:type="MSShapeGroup"></path>
            </g>
        </g>
    </g>
</svg>